<?xml version="1.0" encoding="UTF-8"?>
<svg xmlns="http://www.w3.org/2000/svg" xmlns:xlink="http://www.w3.org/1999/xlink" width="32px" height="32px" viewBox="0 0 32 32" version="1.1">
<g id="surface1">
<path style=" stroke:none;fill-rule:nonzero;fill:rgb(0%,0%,0%);fill-opacity:1;" d="M 16.832031 7.859375 C 16.710938 7.960938 16.679688 8.0625 16.640625 8.550781 C 16.574219 9.273438 16.523438 9.464844 16.128906 10.367188 C 15.726562 11.289062 15.355469 11.859375 14.71875 12.511719 C 14.445312 12.792969 14.144531 13.164062 14.046875 13.34375 C 13.726562 13.914062 13.210938 14.609375 12.722656 15.128906 C 12.273438 15.609375 12.238281 15.636719 11.847656 15.71875 C 11.617188 15.761719 11.410156 15.789062 11.378906 15.769531 C 11.355469 15.75 11.328125 15.65625 11.328125 15.546875 L 11.328125 15.359375 L 9.492188 15.371094 L 7.648438 15.390625 L 7.628906 19.378906 L 7.617188 23.371094 L 9.421875 23.328125 C 11.355469 23.28125 11.390625 23.269531 11.390625 22.957031 C 11.390625 22.839844 11.425781 22.835938 11.890625 22.878906 C 12.160156 22.90625 13.132812 23.117188 14.046875 23.347656 L 15.710938 23.777344 L 18.144531 23.769531 C 20.730469 23.761719 21.113281 23.726562 21.664062 23.457031 C 22.132812 23.226562 22.304688 22.9375 22.296875 22.40625 C 22.296875 22.175781 22.273438 21.925781 22.246094 21.847656 C 22.207031 21.734375 22.226562 21.707031 22.386719 21.675781 C 22.648438 21.625 23.035156 21.273438 23.175781 20.960938 C 23.347656 20.582031 23.335938 20.058594 23.136719 19.6875 C 22.949219 19.335938 22.949219 19.328125 23.066406 19.328125 C 23.21875 19.328125 23.589844 18.855469 23.679688 18.539062 C 23.839844 17.957031 23.648438 17.230469 23.246094 16.882812 L 23.058594 16.730469 L 23.21875 16.613281 C 23.300781 16.550781 23.429688 16.363281 23.5 16.203125 C 23.761719 15.617188 23.519531 14.796875 22.964844 14.425781 C 22.425781 14.0625 22.042969 14.007812 19.921875 14.015625 C 18.738281 14.015625 17.996094 13.992188 17.914062 13.953125 C 17.65625 13.8125 17.804688 13.175781 18.394531 11.867188 C 18.6875 11.199219 18.777344 10.734375 18.726562 10.042969 C 18.65625 8.992188 18.273438 8.167969 17.726562 7.886719 C 17.382812 7.710938 17.023438 7.707031 16.832031 7.859375 Z M 17.703125 8.160156 C 18.207031 8.488281 18.554688 9.734375 18.4375 10.757812 C 18.347656 11.511719 18.316406 11.546875 17.792969 11.359375 C 17.472656 11.246094 17.34375 11.238281 17.34375 11.328125 C 17.34375 11.417969 17.84375 11.640625 18.035156 11.648438 C 18.113281 11.648438 18.175781 11.660156 18.175781 11.671875 C 18.175781 11.6875 18.085938 11.910156 17.976562 12.167969 C 17.546875 13.183594 17.523438 13.28125 17.464844 14.464844 C 17.390625 16.027344 17.234375 16.78125 16.792969 17.683594 C 16.269531 18.769531 15.367188 19.488281 14.363281 19.628906 C 14.167969 19.65625 14.078125 19.699219 14.078125 19.761719 C 14.078125 19.941406 14.804688 19.820312 15.355469 19.539062 C 16.78125 18.816406 17.523438 17.28125 17.703125 14.699219 C 17.734375 14.207031 17.753906 14.136719 17.84375 14.175781 C 18.152344 14.296875 18.859375 14.34375 19.742188 14.292969 C 22.195312 14.15625 23.167969 14.464844 23.328125 15.425781 C 23.441406 16.089844 23.15625 16.519531 22.535156 16.640625 C 22.144531 16.71875 21.652344 16.820312 20.761719 17.023438 C 20.148438 17.160156 19.832031 17.175781 19.277344 17.113281 L 18.945312 17.070312 L 18.839844 16.722656 C 18.785156 16.519531 18.757812 16.289062 18.777344 16.160156 C 18.828125 15.902344 18.707031 15.808594 18.34375 15.808594 C 18.015625 15.808594 18.054688 15.699219 18.453125 15.519531 C 18.71875 15.390625 18.886719 15.359375 19.328125 15.359375 C 19.789062 15.359375 19.929688 15.335938 20.257812 15.179688 C 20.46875 15.078125 20.832031 14.929688 21.074219 14.855469 C 21.355469 14.757812 21.503906 14.675781 21.503906 14.609375 C 21.503906 14.46875 21.152344 14.546875 20.480469 14.828125 C 20.042969 15.015625 19.839844 15.058594 19.449219 15.070312 C 18.425781 15.109375 17.855469 15.425781 17.695312 16.050781 C 17.585938 16.449219 17.652344 16.710938 17.902344 16.980469 C 18.023438 17.105469 18.054688 17.175781 17.996094 17.195312 C 17.824219 17.261719 17.515625 17.574219 17.433594 17.773438 C 17.234375 18.234375 17.351562 18.714844 17.742188 19.039062 C 17.855469 19.140625 17.925781 19.230469 17.886719 19.246094 C 17.566406 19.355469 17.355469 19.519531 17.230469 19.777344 C 16.953125 20.308594 17.132812 20.824219 17.707031 21.164062 C 17.945312 21.300781 17.976562 21.34375 17.894531 21.390625 C 17.621094 21.542969 17.503906 22.15625 17.683594 22.503906 C 17.894531 22.90625 18.425781 23.257812 18.980469 23.371094 C 19.570312 23.488281 19.246094 23.546875 17.902344 23.546875 C 16.082031 23.550781 15.539062 23.476562 13.34375 22.878906 C 12.871094 22.753906 12.269531 22.636719 11.957031 22.609375 L 11.390625 22.574219 L 11.390625 16.078125 L 11.699219 16.03125 C 11.867188 16.007812 12.113281 15.9375 12.257812 15.878906 C 12.691406 15.6875 13.605469 14.625 14.15625 13.664062 C 14.304688 13.421875 14.644531 12.984375 14.910156 12.703125 C 15.386719 12.210938 16.140625 11.160156 16.222656 10.859375 C 16.25 10.785156 16.363281 10.503906 16.480469 10.238281 C 16.710938 9.722656 16.894531 8.941406 16.894531 8.488281 C 16.894531 8.113281 17.03125 7.972656 17.332031 8.027344 C 17.453125 8.042969 17.621094 8.101562 17.703125 8.160156 Z M 11.125 19.300781 C 11.136719 21.320312 11.125 22.976562 11.089844 22.996094 C 11.066406 23.007812 10.328125 23.046875 9.460938 23.070312 L 7.871094 23.117188 L 7.871094 15.679688 L 9.363281 15.660156 C 10.175781 15.65625 10.90625 15.640625 10.976562 15.648438 C 11.097656 15.648438 11.097656 15.726562 11.125 19.300781 Z M 18.46875 16.050781 C 18.507812 16.078125 18.558594 16.257812 18.578125 16.449219 C 18.597656 16.640625 18.636719 16.859375 18.664062 16.921875 C 18.707031 17.03125 18.6875 17.035156 18.457031 17 C 18.105469 16.933594 17.921875 16.699219 17.921875 16.300781 L 17.921875 16 L 18.164062 16 C 18.292969 16 18.433594 16.027344 18.46875 16.050781 Z M 23.007812 17.023438 C 23.640625 17.414062 23.617188 18.769531 22.976562 19.085938 C 22.507812 19.308594 19.359375 19.449219 18.753906 19.277344 C 18.488281 19.199219 18.464844 19.175781 18.453125 18.96875 C 18.425781 18.644531 18.417969 18.042969 18.445312 17.832031 C 18.464844 17.664062 18.4375 17.636719 18.207031 17.566406 L 17.953125 17.496094 L 18.296875 17.414062 C 18.546875 17.351562 18.796875 17.34375 19.195312 17.375 C 19.980469 17.453125 20.199219 17.425781 21.375 17.160156 C 22.628906 16.863281 22.738281 16.859375 23.007812 17.023438 Z M 18.035156 17.765625 L 18.226562 17.804688 L 18.1875 18.207031 C 18.175781 18.4375 18.1875 18.699219 18.234375 18.824219 C 18.273438 18.9375 18.292969 19.039062 18.273438 19.058594 C 18.222656 19.117188 17.804688 18.796875 17.703125 18.617188 C 17.585938 18.417969 17.566406 18.035156 17.664062 17.847656 C 17.742188 17.714844 17.753906 17.707031 18.035156 17.765625 Z M 18.808594 19.527344 C 19.246094 19.648438 19.390625 19.660156 20.222656 19.621094 C 20.734375 19.601562 21.476562 19.550781 21.867188 19.507812 C 22.546875 19.441406 22.597656 19.441406 22.726562 19.558594 C 23.246094 20.019531 23.097656 21.035156 22.464844 21.355469 C 22.222656 21.484375 22.078125 21.503906 21.503906 21.503906 C 20.664062 21.496094 18.925781 21.34375 18.625 21.246094 C 18.503906 21.203125 18.363281 21.160156 18.308594 21.144531 C 18.246094 21.125 18.238281 21.09375 18.285156 21.050781 C 18.328125 21.003906 18.324219 20.890625 18.257812 20.683594 C 18.183594 20.421875 18.183594 20.34375 18.273438 20.070312 C 18.386719 19.71875 18.363281 19.585938 18.183594 19.585938 C 17.996094 19.585938 17.957031 19.46875 18.125 19.4375 C 18.207031 19.425781 18.285156 19.40625 18.296875 19.398438 C 18.316406 19.398438 18.546875 19.457031 18.808594 19.527344 Z M 18.085938 19.789062 C 18.097656 19.808594 18.078125 19.917969 18.046875 20.039062 C 18.007812 20.160156 17.996094 20.390625 18.023438 20.558594 C 18.0625 20.863281 18.0625 20.863281 17.875 20.863281 C 17.492188 20.863281 17.253906 20.363281 17.433594 19.9375 C 17.535156 19.707031 17.542969 19.699219 17.796875 19.730469 C 17.9375 19.75 18.066406 19.777344 18.085938 19.789062 Z M 18.457031 21.476562 C 18.539062 21.511719 18.539062 21.542969 18.433594 21.746094 C 18.363281 21.875 18.285156 22.074219 18.265625 22.1875 C 18.222656 22.433594 18.234375 22.425781 18.015625 22.324219 C 17.894531 22.273438 17.855469 22.203125 17.855469 22.054688 C 17.855469 21.761719 18.003906 21.574219 18.347656 21.445312 C 18.355469 21.441406 18.398438 21.460938 18.457031 21.476562 Z M 20.128906 21.695312 C 20.621094 21.726562 21.222656 21.761719 21.460938 21.761719 L 21.894531 21.761719 L 21.996094 21.996094 C 22.113281 22.285156 22.066406 22.738281 21.902344 22.96875 C 21.582031 23.40625 20.832031 23.511719 19.742188 23.300781 C 19.058594 23.160156 18.335938 22.878906 18.183594 22.695312 C 18.113281 22.609375 18.132812 22.597656 18.285156 22.609375 C 18.457031 22.625 18.464844 22.609375 18.496094 22.304688 C 18.515625 22.113281 18.59375 21.902344 18.675781 21.773438 C 18.804688 21.59375 18.855469 21.566406 19.027344 21.601562 C 19.140625 21.621094 19.636719 21.65625 20.128906 21.695312 Z M 20.128906 21.695312 "/>
<path style=" stroke:none;fill-rule:nonzero;fill:rgb(0%,0%,0%);fill-opacity:1;" d="M 22.636719 15.210938 C 22.617188 15.246094 22.648438 15.441406 22.707031 15.667969 C 22.808594 16.101562 22.949219 16.171875 22.9375 15.789062 C 22.925781 15.410156 22.734375 15.046875 22.636719 15.210938 Z M 22.636719 15.210938 "/>
<path style=" stroke:none;fill-rule:nonzero;fill:rgb(0%,0%,0%);fill-opacity:1;" d="M 9.921875 21.484375 C 9.535156 21.625 9.402344 22.125 9.683594 22.386719 C 9.84375 22.535156 10.164062 22.574219 10.363281 22.464844 C 10.523438 22.378906 10.648438 22.054688 10.597656 21.855469 C 10.539062 21.621094 10.144531 21.40625 9.921875 21.484375 Z M 10.304688 21.882812 C 10.394531 22.046875 10.324219 22.203125 10.136719 22.246094 C 9.867188 22.316406 9.675781 22.027344 9.867188 21.835938 C 9.984375 21.722656 10.226562 21.746094 10.304688 21.882812 Z M 10.304688 21.882812 "/>
<path style=" stroke:none;fill-rule:nonzero;fill:rgb(0%,0%,0%);fill-opacity:1;" d="M 22.753906 18.046875 C 22.753906 18.46875 22.769531 18.558594 22.847656 18.546875 C 23.027344 18.507812 23.007812 17.535156 22.828125 17.535156 C 22.769531 17.535156 22.753906 17.683594 22.753906 18.046875 Z M 22.753906 18.046875 "/>
<path style=" stroke:none;fill-rule:nonzero;fill:rgb(0%,0%,0%);fill-opacity:1;" d="M 18.980469 18.152344 C 18.878906 18.417969 19.015625 19.070312 19.175781 19.070312 C 19.25 19.070312 19.257812 19.027344 19.21875 18.828125 C 19.195312 18.699219 19.175781 18.46875 19.1875 18.316406 C 19.199219 18.125 19.175781 18.046875 19.109375 18.046875 C 19.058594 18.046875 19 18.09375 18.980469 18.152344 Z M 18.980469 18.152344 "/>
<path style=" stroke:none;fill-rule:nonzero;fill:rgb(0%,0%,0%);fill-opacity:1;" d="M 22.335938 20.25 C 22.335938 20.402344 22.316406 20.621094 22.296875 20.730469 C 22.265625 20.882812 22.277344 20.929688 22.355469 20.929688 C 22.488281 20.929688 22.527344 20.792969 22.527344 20.34375 C 22.527344 20.050781 22.507812 19.96875 22.433594 19.96875 C 22.363281 19.96875 22.335938 20.042969 22.335938 20.25 Z M 22.335938 20.25 "/>
<path style=" stroke:none;fill-rule:nonzero;fill:rgb(0%,0%,0%);fill-opacity:1;" d="M 19.039062 22.363281 C 18.996094 22.644531 19.027344 22.785156 19.128906 22.785156 C 19.160156 22.785156 19.207031 22.65625 19.226562 22.496094 C 19.28125 22.117188 19.28125 22.113281 19.175781 22.09375 C 19.109375 22.078125 19.070312 22.152344 19.039062 22.363281 Z M 19.039062 22.363281 "/>
<path style=" stroke:none;fill-rule:nonzero;fill:rgb(0%,0%,0%);fill-opacity:1;" d="M 21.394531 22.574219 C 21.355469 22.757812 21.351562 22.90625 21.382812 22.9375 C 21.476562 23.039062 21.582031 22.878906 21.613281 22.566406 C 21.664062 22.152344 21.496094 22.164062 21.394531 22.574219 Z M 21.394531 22.574219 "/>
</g>
</svg>
